<?xml version="1.0" standalone="no"?>
<!DOCTYPE svg PUBLIC "-//W3C//DTD SVG 20010904//EN"
 "http://www.w3.org/TR/2001/REC-SVG-20010904/DTD/svg10.dtd">
<svg version="1.0" xmlns="http://www.w3.org/2000/svg"
 width="100.000000pt" height="100.000000pt" viewBox="0 0 100.000000 100.000000"
 preserveAspectRatio="xMidYMid meet">

<g transform="translate(0.000000,100.000000) scale(0.100000,-0.100000)"
fill="#000000" stroke="none">
<path d="M377 946 c-56 -16 -76 -31 -60 -47 7 -7 27 -5 69 7 73 21 177 15 253
-16 38 -15 57 -18 65 -10 28 28 -81 70 -199 76 -49 2 -99 -1 -128 -10z"/>
<path d="M217 859 c-51 -42 -160 -188 -153 -205 10 -26 25 -15 79 59 30 39 75
92 100 116 66 64 44 88 -26 30z"/>
<path d="M480 843 c0 -17 9 -21 48 -26 154 -18 247 -98 294 -250 17 -58 20
-87 16 -190 -3 -67 -7 -128 -9 -136 -2 -8 4 -16 13 -19 25 -5 41 65 41 184 -1
260 -127 424 -348 450 -50 6 -55 5 -55 -13z"/>
<path d="M754 846 c-3 -9 13 -31 40 -56 56 -52 109 -154 131 -255 17 -77 29
-95 47 -77 16 16 -18 151 -58 232 -34 67 -121 170 -144 170 -6 0 -13 -6 -16
-14z"/>
<path d="M365 837 c-16 -7 -43 -20 -60 -29 -53 -29 -145 -139 -145 -172 0 -31
26 -15 65 39 46 64 109 113 169 130 43 13 56 39 21 42 -11 1 -33 -4 -50 -10z"/>
<path d="M420 749 c-49 -14 -98 -54 -84 -69 8 -8 22 -5 55 12 29 15 67 24 112
26 56 4 67 7 65 21 -4 19 -92 25 -148 10z"/>
<path d="M610 717 c0 -7 21 -30 46 -51 29 -25 56 -60 73 -95 24 -51 26 -67 25
-174 0 -102 2 -117 15 -115 22 4 36 106 26 193 -9 88 -55 178 -113 222 -46 35
-72 42 -72 20z"/>
<path d="M412 639 c-43 -21 -102 -93 -102 -123 0 -33 20 -24 55 25 42 59 90
83 151 76 55 -6 96 -36 119 -86 17 -39 37 -52 50 -31 3 5 -3 26 -14 47 -52
102 -161 140 -259 92z"/>
<path d="M222 556 c-64 -101 -92 -126 -150 -135 -23 -4 -37 -12 -37 -21 0 -24
51 -24 101 0 36 18 56 39 110 122 59 89 73 128 45 128 -5 0 -36 -42 -69 -94z"/>
<path d="M89 557 c-19 -17 -44 -37 -55 -43 -15 -10 -17 -14 -6 -25 10 -11 19
-10 48 6 39 21 74 60 74 81 0 23 -23 16 -61 -19z"/>
<path d="M437 552 c-10 -10 -35 -63 -56 -117 -53 -132 -108 -188 -205 -210
-32 -7 -51 -17 -51 -26 0 -39 118 -9 184 47 49 42 81 94 114 187 14 38 35 79
47 92 22 24 20 45 -4 45 -7 0 -20 -8 -29 -18z"/>
<path d="M526 562 c-3 -5 4 -26 14 -48 24 -46 25 -90 5 -169 -25 -95 -70 -181
-126 -240 -39 -41 -50 -58 -41 -67 25 -25 111 65 161 172 38 81 65 198 58 257
-6 60 -53 123 -71 95z"/>
<path d="M485 468 c-5 -16 -34 -124 -42 -156 -5 -20 -2 -23 13 -20 22 3 65
116 61 157 -2 27 -24 40 -32 19z"/>
<path d="M243 410 c-36 -54 -72 -77 -136 -88 -27 -5 -42 -13 -42 -22 0 -39
109 -15 165 37 46 41 84 98 75 113 -12 20 -31 9 -62 -40z"/>
<path d="M667 433 c-2 -4 -7 -36 -11 -71 -9 -80 -46 -191 -86 -254 -34 -55
-38 -81 -13 -76 25 5 78 99 109 195 29 89 38 203 17 210 -6 2 -13 0 -16 -4z"/>
<path d="M377 218 c-19 -24 -58 -56 -86 -73 -49 -29 -62 -47 -41 -60 26 -16
190 121 190 160 0 27 -27 16 -63 -27z"/>
<path d="M717 177 c-22 -69 -22 -89 0 -85 18 3 58 112 47 129 -13 22 -32 5
-47 -44z"/>
</g>
</svg>
